<?xml version="1.0" standalone="no"?>
<!DOCTYPE svg PUBLIC "-//W3C//DTD SVG 20010904//EN"
 "http://www.w3.org/TR/2001/REC-SVG-20010904/DTD/svg10.dtd">
<svg version="1.0" xmlns="http://www.w3.org/2000/svg"
 width="219.000000pt" height="219.000000pt" viewBox="0 0 219.000000 219.000000"
 preserveAspectRatio="xMidYMid meet">
<metadata>
Created by potrace 1.14, written by Peter Selinger 2001-2017
</metadata>
<g transform="translate(0.000000,219.000000) scale(0.100000,-0.100000)"
fill="#000000" stroke="none">
<path d="M757 2166 c-37 -12 -69 -20 -72 -18 -3 3 -5 0 -5 -6 0 -7 -5 -12 -11
-12 -18 0 -128 -58 -202 -107 -67 -44 -257 -224 -257 -242 0 -4 -9 -19 -21
-32 -20 -22 -89 -135 -89 -144 0 -3 -13 -33 -29 -67 -65 -142 -71 -187 -68
-463 3 -281 5 -290 92 -470 119 -248 336 -447 594 -548 138 -53 164 -57 416
-57 l234 0 104 34 c58 19 123 44 146 56 280 142 494 395 583 685 15 52 18 97
18 326 0 258 -1 269 -25 344 -14 43 -31 87 -37 99 -7 11 -13 26 -14 33 -3 19
-92 163 -132 213 -32 41 -144 154 -188 190 -78 64 -214 137 -334 181 -62 23
-78 24 -350 26 -274 2 -288 1 -353 -21z"/>
</g>
</svg>
